<?xml version="1.0" encoding="utf-8"?>
<!-- Generator: Adobe Illustrator 21.0.2, SVG Export Plug-In . SVG Version: 6.00 Build 0)  -->
<svg version="1.1" id="Layer_1" xmlns="http://www.w3.org/2000/svg" xmlns:xlink="http://www.w3.org/1999/xlink" x="0px" y="0px"
	 viewBox="0 0 199 39" style="enable-background:new 0 0 199 39;" xml:space="preserve">
<style type="text/css">
	.st0{enable-background:new    ;}
</style>
<g class="st0">
	<path d="M18.5,15.6H14v-2.3h11.4v2.3h-4.4v11.7h-2.5V15.6z"/>
	<path d="M28,13.4h6.2c1.8,0,3.1,0.5,4,1.4c0.7,0.8,1.2,1.8,1.2,3v0c0,2.3-1.4,3.7-3.3,4.2l3.8,5.3H37l-3.4-4.9h-3.1v4.9H28V13.4z
		 M34,20.3c1.8,0,2.9-0.9,2.9-2.3v0c0-1.5-1.1-2.3-2.9-2.3h-3.6v4.7H34z"/>
	<path d="M47.4,13.3h2.3l6.2,14.1h-2.6L51.8,24h-6.6l-1.4,3.4h-2.5L47.4,13.3z M50.9,21.8l-2.4-5.6l-2.4,5.6H50.9z"/>
	<path d="M55,13.4h2.7L62,24.1l4.2-10.8h2.7L63,27.5h-2.2L55,13.4z"/>
	<path d="M71.2,13.4h10.4v2.2h-7.9v3.6h7v2.2h-7v3.8h8v2.2H71.2V13.4z"/>
	<path d="M84.6,13.4h2.5v11.8h7.4v2.2h-9.8V13.4z"/>
</g>
<g class="st0">
	<path d="M102.1,13.1h1.2v1.3h-1.2V13.1z M102.2,17.2h1v10.2h-1V17.2z"/>
	<path d="M107,17.2h1v1.9c0.7-1.2,1.8-2.1,3.7-2.1c2.6,0,4.1,1.8,4.1,4.2v6.2h-1v-6.1c0-2.1-1.2-3.5-3.2-3.5c-2,0-3.5,1.5-3.5,3.6
		v5.9h-1V17.2z"/>
</g>
<g class="st0">
	<path d="M122.3,25.3l1.5-1.8c1.3,1.2,2.7,1.8,4.4,1.8c1.5,0,2.5-0.7,2.5-1.8v0c0-1-0.6-1.5-3.2-2.1c-3-0.7-4.7-1.6-4.7-4.2v0
		c0-2.4,2-4.1,4.8-4.1c2,0,3.7,0.6,5.1,1.8l-1.3,1.9c-1.3-0.9-2.5-1.4-3.8-1.4c-1.4,0-2.3,0.7-2.3,1.7v0c0,1.1,0.6,1.6,3.3,2.2
		c3,0.7,4.5,1.8,4.5,4.1v0c0,2.6-2.1,4.2-5,4.2C126,27.6,124,26.8,122.3,25.3z"/>
	<path d="M139.2,15.6h-4.4v-2.3h11.4v2.3h-4.4v11.7h-2.5V15.6z"/>
	<path d="M152.8,21.8l-5.6-8.5h2.9l3.9,6.2l4-6.2h2.8l-5.6,8.4v5.6h-2.5V21.8z"/>
	<path d="M163,13.4h2.5v11.8h7.4v2.2H163V13.4z"/>
	<path d="M175.4,13.4h10.4v2.2h-7.9v3.6h7v2.2h-7v3.8h8v2.2h-10.5V13.4z"/>
</g>
</svg>
